<?xml version="1.0" encoding="UTF-8" standalone="no"?>
<svg
   xmlns:dc="http://purl.org/dc/elements/1.1/"
   xmlns:cc="http://creativecommons.org/ns#"
   xmlns:rdf="http://www.w3.org/1999/02/22-rdf-syntax-ns#"
   xmlns:svg="http://www.w3.org/2000/svg"
   xmlns="http://www.w3.org/2000/svg"
   id="svg2451"
   viewBox="0, 0, 128, 128"
   height="128"
   width="128"
   y="0px"
   x="0px"
   version="1.1">
  <metadata
     id="metadata2455">
    <rdf:RDF>
      <cc:Work
         rdf:about="">
        <dc:format>image/svg+xml</dc:format>
        <dc:type
           rdf:resource="http://purl.org/dc/dcmitype/StillImage" />
        <dc:title></dc:title>
      </cc:Work>
    </rdf:RDF>
  </metadata>
  <g
     transform="matrix(1.2705,0,0,1.2705,-28.882197,-27.900779)"
     id="Background">
    <rect
       style="fill:#000000;fill-opacity:0"
       id="rect2434"
       height="128"
       width="128"
       y="0"
       x="0" />
  </g>
  <g
     id="g2447">
    <g
       style="fill:#ebeded;fill-opacity:1"
       id="g3681"
       transform="matrix(0.2025,0,0,0.2025,11.313137,17.859557)" />
    <g
       style="fill:#ebeded;fill-opacity:1"
       id="g3683"
       transform="matrix(0.2025,0,0,0.2025,11.313137,17.859557)" />
    <g
       style="fill:#ebeded;fill-opacity:1"
       id="g3685"
       transform="matrix(0.2025,0,0,0.2025,11.313137,17.859557)" />
    <g
       style="fill:#ebeded;fill-opacity:1"
       id="g3687"
       transform="matrix(0.2025,0,0,0.2025,11.313137,17.859557)" />
    <g
       style="fill:#ebeded;fill-opacity:1"
       id="g3689"
       transform="matrix(0.2025,0,0,0.2025,11.313137,17.859557)" />
    <g
       style="fill:#ebeded;fill-opacity:1"
       id="g3691"
       transform="matrix(0.2025,0,0,0.2025,11.313137,17.859557)" />
    <g
       style="fill:#ebeded;fill-opacity:1"
       id="g3693"
       transform="matrix(0.2025,0,0,0.2025,11.313137,17.859557)" />
    <g
       style="fill:#ebeded;fill-opacity:1"
       id="g3695"
       transform="matrix(0.2025,0,0,0.2025,11.313137,17.859557)" />
    <g
       style="fill:#ebeded;fill-opacity:1"
       id="g3697"
       transform="matrix(0.2025,0,0,0.2025,11.313137,17.859557)" />
    <g
       style="fill:#ebeded;fill-opacity:1"
       id="g3699"
       transform="matrix(0.2025,0,0,0.2025,11.313137,17.859557)" />
    <g
       style="fill:#ebeded;fill-opacity:1"
       id="g3701"
       transform="matrix(0.2025,0,0,0.2025,11.313137,17.859557)" />
    <g
       style="fill:#ebeded;fill-opacity:1"
       id="g3703"
       transform="matrix(0.2025,0,0,0.2025,11.313137,17.859557)" />
    <g
       style="fill:#ebeded;fill-opacity:1"
       id="g3705"
       transform="matrix(0.2025,0,0,0.2025,11.313137,17.859557)" />
    <g
       style="fill:#ebeded;fill-opacity:1"
       id="g3707"
       transform="matrix(0.2025,0,0,0.2025,11.313137,17.859557)" />
    <g
       style="fill:#ebeded;fill-opacity:1"
       id="g3709"
       transform="matrix(0.2025,0,0,0.2025,11.313137,17.859557)" />
    <g
       style="fill:#737370;fill-opacity:1;stroke:none"
       id="g599"
       transform="matrix(0.51884044,0,0,0.51884044,-65.847195,-54.488427)">
      <polygon
         transform="matrix(0.1356032,0.2932032,-0.00416466,0.97115047,323.55068,-54.480993)"
         id="polygon597"
         points="184.642,143.629 340.526,71.579 340.526,274.219 184.642,357.35 "
         style="fill:#737370;fill-opacity:1;stroke:none" />
      <rect
         y="139.58749"
         x="133.37123"
         height="207.25262"
         width="207.25262"
         id="rect1581"
         style="fill:#737370;fill-opacity:1;stroke:none;stroke-width:2.33212352;stroke-opacity:1" />
      <polygon
         transform="matrix(-0.31823348,-0.13560319,-0.97038174,0.00416466,540.83715,157.00748)"
         id="polygon597-3"
         points="340.526,274.219 184.642,357.35 184.642,143.629 340.526,71.579 "
         style="fill:#737370;fill-opacity:1;stroke:none" />
    </g>
    <g
       id="g601"
       transform="matrix(0.3375,0,0,0.3375,136.96358,-2.8188527)" />
    <g
       id="g603"
       transform="matrix(0.3375,0,0,0.3375,136.96358,-2.8188527)" />
    <g
       id="g605"
       transform="matrix(0.3375,0,0,0.3375,136.96358,-2.8188527)" />
    <g
       id="g607"
       transform="matrix(0.3375,0,0,0.3375,136.96358,-2.8188527)" />
    <g
       id="g609"
       transform="matrix(0.3375,0,0,0.3375,136.96358,-2.8188527)" />
    <g
       id="g611"
       transform="matrix(0.3375,0,0,0.3375,136.96358,-2.8188527)" />
    <g
       id="g613"
       transform="matrix(0.3375,0,0,0.3375,136.96358,-2.8188527)" />
    <g
       id="g615"
       transform="matrix(0.3375,0,0,0.3375,136.96358,-2.8188527)" />
    <g
       id="g617"
       transform="matrix(0.3375,0,0,0.3375,136.96358,-2.8188527)" />
    <g
       id="g619"
       transform="matrix(0.3375,0,0,0.3375,136.96358,-2.8188527)" />
    <g
       id="g621"
       transform="matrix(0.3375,0,0,0.3375,136.96358,-2.8188527)" />
    <g
       id="g623"
       transform="matrix(0.3375,0,0,0.3375,136.96358,-2.8188527)" />
    <g
       id="g625"
       transform="matrix(0.3375,0,0,0.3375,136.96358,-2.8188527)" />
    <g
       id="g627"
       transform="matrix(0.3375,0,0,0.3375,136.96358,-2.8188527)" />
    <g
       id="g629"
       transform="matrix(0.3375,0,0,0.3375,136.96358,-2.8188527)" />
    <path
       style="fill:#82d1f5;fill-opacity:1"
       id="path11036"
       d="m 103.11208,87.21039 c -2.7703,-2.522656 -6.5625,-4.753124 -11.28202,-6.64453 1.74764,-2.78125 2.4375,-5.63125 2.0039,-8.4 C 93.0535,67.181484 88.791,63.129922 81.75194,60.617422 c 1.11796,-1.616406 1.72578,-3.366406 1.72578,-5.203124 0,-2.772658 -1.37736,-5.417188 -3.99844,-7.722658 1.66874,-1.471876 2.64452,-3.20625 2.83358,-5.111718 0.3336,-3.360158 -1.84218,-6.691408 -6.12734,-9.378126 -3.95938,-2.482812 -9.375,-4.20625 -15.25,-4.851562 -0.82266,-0.0914 -1.56406,0.503124 -1.65468,1.326562 -0.0906,0.823438 0.50312,1.564844 1.32734,1.655468 11.71954,1.288282 19.1414,6.703126 18.71954,10.951564 -0.21564,2.171094 -2.43204,4.189844 -6.08204,5.539062 -4.06094,1.501564 -9.34922,2.025782 -14.8875,1.475782 -5.53906,-0.55 -10.62032,-2.103126 -14.30782,-4.373438 -3.3125,-2.040626 -5.08906,-4.45625 -4.87344,-6.626562 0.3922,-3.954688 7.28048,-7.058596 16.02266,-7.218752 0.82892,-0.0156 1.4875,-0.699218 1.47266,-1.527342 -0.016,-0.828126 -0.69688,-1.490626 -1.52734,-1.472658 -4.88516,0.08984 -9.42032,1.029688 -12.7711,2.646094 -3.69766,1.783594 -5.89374,4.367188 -6.18202,7.275782 -0.1626,1.632812 0.26718,3.255468 1.23984,4.8 -8.1875,2.776562 -13.01094,7.408594 -13.01094,12.612502 0,3.946874 2.80234,7.495312 7.46328,10.164842 -4.14062,2.194532 -7.54766,4.739064 -9.95234,7.452344 -2.71876,3.067188 -4.1172,6.303906 -4.10312,9.451564 -7.9039199,4.042968 -12.0812601,9.078905 -12.0812601,14.567185 0,6.217977 5.4961001,11.950007 15.4757801,16.141407 9.56718,4.0172 22.2539,6.2297 35.72422,6.2297 13.47032,0 26.15704,-2.2125 35.72422,-6.2297 9.97968,-4.19062 15.47578,-9.92343 15.47578,-16.141407 0,-3.4875 -1.69374,-6.798435 -5.03516,-9.839843 z M 27.4199,55.414298 c 0,-4.00625 4.6211,-7.857034 12.11094,-10.138284 0.83594,0.771094 1.81952,1.508594 2.94608,2.203126 4.0672,2.504688 9.60158,4.210938 15.58438,4.804688 1.525,0.15156 3.03516,0.226562 4.51406,0.226562 4.32266,0 8.37266,-0.639842 11.71094,-1.873436 0.95548,-0.353126 1.83126,-0.74922 2.62814,-1.182032 1.7328,1.374218 3.56328,3.425782 3.56328,5.959376 0,1.675 -0.7875,3.283592 -2.19688,4.751562 -0.1126,0.08516 -0.21328,0.18516 -0.29922,0.3 -4.27656,4.145312 -13.5625,7.09375 -24.03282,7.09375 -14.37968,0 -26.5289,-5.56172 -26.5289,-12.145312 z m 64.08984,55.011722 c -9.20702,3.8664 -21.48202,5.99532 -34.5625,5.99532 -13.08046,0 -25.35468,-2.12892 -34.5625,-5.99532 -8.6664,-3.63984 -13.6375001,-8.51484 -13.6375001,-13.375787 0,-4.04062 3.3914001,-8.076561 9.5757801,-11.436717 1.46798,4.610156 6.12266,8.307817 13.31406,10.514067 4.61328,1.41562 9.97812,2.13203 15.70314,2.13203 3.7375,0 7.62968,-0.30547 11.56406,-0.92188 3.31718,-0.51875 6.57422,-1.24687 9.68124,-2.16406 0.79454,-0.23437 1.24844,-1.06875 1.01406,-1.86328 -0.23436,-0.79453 -1.06796,-1.24844 -1.86328,-1.01406 -2.98046,0.87968 -6.10858,1.5789 -9.29608,2.07812 -9.51876,1.48985 -18.72422,1.09375 -25.92266,-1.11484 -6.83282,-2.09688 -10.95314,-5.533597 -11.60156,-9.676565 -0.86328,-5.5125 4.62812,-11.741408 14.36406,-16.351564 5.0539,2.089064 11.52734,3.328126 18.66952,3.328126 11.0922,0 20.57344,-2.985938 25.625,-7.510156 6.56328,2.08203 10.66406,5.546094 11.29532,9.580468 0.5914,3.776562 -1.8672,7.190626 -4.03438,9.389062 -3.22108,3.26797 -8.03438,6.210938 -13.91952,8.510938 -0.77188,0.301562 -1.15314,1.171091 -0.85078,1.942971 0.23124,0.59219 0.79686,0.95391 1.39686,0.95391 0.1812,0 0.36642,-0.0328 0.5461,-0.10312 6.275,-2.451567 11.44922,-5.632817 14.96328,-9.198443 0.34922,-0.354686 0.68046,-0.710936 0.99374,-1.06953 9.658601,3.71328 15.18204,8.792183 15.18204,13.994533 0,4.860947 -4.9711,9.735947 -13.6375,13.375777 z m 0,0" />
  </g>
  <defs
     id="defs2449" />
</svg>
